<svg width="960" height="796" viewBox="0 0 960 796" fill="none" xmlns="http://www.w3.org/2000/svg">
<rect x="0" y="0" width="960" height="40511.890625" fill="rgb(255, 255, 255)" />
<rect x="0" y="0" width="960" height="57" fill="rgb(255, 255, 255)" />
<rect x="24" y="15.5" width="44" height="25" fill="rgba(227, 227, 227, 0.8)" />
<rect x="84.015625" y="8" width="240" height="40" fill="rgb(249, 249, 249)" rx="20"/>
<rect x="96.015625" y="16" width="24" height="24" fill="rgba(227, 227, 227, 0.8)" />
<rect x="132.015625" y="8" width="192" height="40" fill="rgba(227, 227, 227, 0.8)" />
<rect x="750.6640625" y="16" width="24" height="24" fill="rgba(227, 227, 227, 0.8)" />
<rect x="782.6640625" y="21" width="33" height="14" fill="rgba(227, 227, 227, 0.8)" />
<rect x="848" y="16" width="24" height="24" fill="rgba(227, 227, 227, 0.8)" />
<rect x="904" y="12" width="32" height="32" fill="rgba(227, 227, 227, 0.8)" rx="50%"/>
<rect x="0" y="57" width="960" height="44" fill="rgb(249, 249, 249)" />
<rect x="201.8125" y="70" width="18" height="18" fill="rgba(227, 227, 227, 0.8)" />
<rect x="227.8125" y="69" width="530" height="20" fill="rgba(227, 227, 227, 0.8)" />
<rect x="227.8125" y="72" width="404.7578125" height="14" fill="rgba(227, 227, 227, 0.8)" />
<rect x="640.5703125" y="72" width="117.6171875" height="14" fill="rgba(227, 227, 227, 0.8)" />
<rect x="912" y="67" width="24" height="24" fill="rgba(227, 227, 227, 0.8)" />
<rect x="140" y="150.9765625" width="680" height="104" fill="rgba(227, 227, 227, 0.8)" />
<rect x="140" y="263.875" width="680" height="56" fill="rgba(227, 227, 227, 0.8)" />
<rect x="142" y="345.875" width="44" height="44" fill="rgba(227, 227, 227, 0.8)" rx="50%"/>
<rect x="178" y="365.875" width="24" height="24" fill="rgba(227, 227, 227, 0.8)" rx="50%"/>
<rect x="216" y="346.625" width="604" height="24" fill="rgba(227, 227, 227, 0.8)" />
<rect x="216" y="350.625" width="119.515625" height="16" fill="rgba(227, 227, 227, 0.8)" />
<rect x="347.140625" y="351.125" width="16" height="16" fill="rgba(227, 227, 227, 0.8)" />
<rect x="371.140625" y="348.625" width="3" height="20" fill="rgba(227, 227, 227, 0.8)" />
<rect x="371.140625" y="351.625" width="3.015625" height="14" fill="rgba(227, 227, 227, 0.8)" />
<rect x="382.359375" y="350.625" width="45.34375" height="16" fill="rgba(227, 227, 227, 0.8)" />
<rect x="216" y="372.625" width="604" height="20" fill="rgba(227, 227, 227, 0.8)" />
<rect x="216" y="375.625" width="76" height="14" fill="rgba(227, 227, 227, 0.8)" />
<rect x="296.4140625" y="375.625" width="61" height="14" fill="rgba(227, 227, 227, 0.8)" />
<rect x="365.65625" y="373.625" width="3.015625" height="18" fill="rgba(227, 227, 227, 0.8)" />
<rect x="365.65625" y="375.625" width="3.015625" height="14" fill="rgba(227, 227, 227, 0.8)" />
<rect x="376.671875" y="372.625" width="169.7734375" height="20" fill="rgba(227, 227, 227, 0.8)" />
<rect x="376.671875" y="375.625" width="71" height="14" fill="rgba(227, 227, 227, 0.8)" />
<rect x="455.8515625" y="372.625" width="3" height="20" fill="rgba(227, 227, 227, 0.8)" />
<rect x="455.8515625" y="375.625" width="3.015625" height="14" fill="rgba(227, 227, 227, 0.8)" />
<rect x="466.8671875" y="375.625" width="79.578125" height="14" fill="rgba(227, 227, 227, 0.8)" />
<rect x="148" y="439.3984375" width="24" height="24" fill="rgba(227, 227, 227, 0.8)" />
<rect x="176" y="443.125" width="23" height="16.5" fill="rgba(227, 227, 227, 0.8)" />
<rect x="222" y="435.375" width="50.78125" height="32" fill="rgba(227, 227, 227, 0.8)" />
<rect x="222" y="439.375" width="24" height="24" fill="rgba(227, 227, 227, 0.8)" />
<rect x="252" y="444.625" width="22.78125" height="13" fill="rgba(227, 227, 227, 0.8)" />
<rect x="628" y="431.375" width="28" height="40" fill="rgba(227, 227, 227, 0.8)" />
<rect x="630" y="439.375" width="24" height="24" fill="rgba(227, 227, 227, 0.8)" />
<rect x="680" y="431.375" width="28" height="40" fill="rgba(227, 227, 227, 0.8)" />
<rect x="682" y="439.375" width="24" height="24" fill="rgba(227, 227, 227, 0.8)" />
<rect x="732" y="431.375" width="28" height="40" fill="rgba(227, 227, 227, 0.8)" />
<rect x="734" y="439.375" width="24" height="24" fill="rgba(227, 227, 227, 0.8)" />
<rect x="784" y="431.375" width="28" height="40" fill="rgba(227, 227, 227, 0.8)" />
<rect x="786" y="439.375" width="24" height="24" fill="rgba(227, 227, 227, 0.8)" />
<rect x="140" y="524.171875" width="162.6640625" height="20" fill="rgba(227, 227, 227, 0.8)" />
<rect x="140" y="596.9765625" width="680" height="434" fill="rgba(227, 227, 227, 0.8)" />
</svg>